<svg width="24" height="24" viewBox="0 0 24 24" fill="none" xmlns="http://www.w3.org/2000/svg">
<path d="M8.64 4H15.36C17.92 4 20 6.08 20 8.64V15.36C20 16.5906 19.5111 17.7708 18.641 18.641C17.7708 19.5111 16.5906 20 15.36 20H8.64C6.08 20 4 17.92 4 15.36V8.64C4 7.4094 4.48886 6.22919 5.35902 5.35902C6.22919 4.48886 7.4094 4 8.64 4ZM8.48 5.6C7.71618 5.6 6.98364 5.90343 6.44353 6.44353C5.90343 6.98364 5.6 7.71618 5.6 8.48V15.52C5.6 17.112 6.888 18.4 8.48 18.4H15.52C16.2838 18.4 17.0164 18.0966 17.5565 17.5565C18.0966 17.0164 18.4 16.2838 18.4 15.52V8.48C18.4 6.888 17.112 5.6 15.52 5.6H8.48ZM16.2 6.8C16.4652 6.8 16.7196 6.90536 16.9071 7.09289C17.0946 7.28043 17.2 7.53478 17.2 7.8C17.2 8.06522 17.0946 8.31957 16.9071 8.50711C16.7196 8.69464 16.4652 8.8 16.2 8.8C15.9348 8.8 15.6804 8.69464 15.4929 8.50711C15.3054 8.31957 15.2 8.06522 15.2 7.8C15.2 7.53478 15.3054 7.28043 15.4929 7.09289C15.6804 6.90536 15.9348 6.8 16.2 6.8ZM12 8C13.0609 8 14.0783 8.42143 14.8284 9.17157C15.5786 9.92172 16 10.9391 16 12C16 13.0609 15.5786 14.0783 14.8284 14.8284C14.0783 15.5786 13.0609 16 12 16C10.9391 16 9.92172 15.5786 9.17157 14.8284C8.42143 14.0783 8 13.0609 8 12C8 10.9391 8.42143 9.92172 9.17157 9.17157C9.92172 8.42143 10.9391 8 12 8ZM12 9.6C11.3635 9.6 10.753 9.85286 10.3029 10.3029C9.85286 10.753 9.6 11.3635 9.6 12C9.6 12.6365 9.85286 13.247 10.3029 13.6971C10.753 14.1471 11.3635 14.4 12 14.4C12.6365 14.4 13.247 14.1471 13.6971 13.6971C14.1471 13.247 14.4 12.6365 14.4 12C14.4 11.3635 14.1471 10.753 13.6971 10.3029C13.247 9.85286 12.6365 9.6 12 9.6Z" fill="#482D80"/>
</svg>
