<svg width="204" height="48" viewBox="0 0 204 48" fill="none" xmlns="http://www.w3.org/2000/svg">
<g clip-path="url(#clip0_615_425)">
<path d="M142.295 9.544H129.705V13.3138H142.295V46H146.075V13.3138V9.544V2H142.295V9.544Z" fill="white"/>
<path d="M152.37 2V46H175.035V2H152.37ZM156.151 42.2302V5.76978H171.264V42.2258H156.151V42.2302Z" fill="white"/>
<path d="M185.111 42.2302V19.6027H197.705V2H181.335V5.76978H193.929V15.8284H181.335V46H204V42.2302H185.111Z" fill="white"/>
<path d="M25.184 2H0V46H37.7783V20.8578H25.184V2ZM6.2949 8.28445H18.8891V20.8578H6.2949V8.28445ZM31.4834 27.1422V39.7156H6.2949V27.1422H31.4789H31.4834Z" fill="white"/>
<path d="M44.0732 46H80.5898V20.8578H44.0732V46ZM50.3725 27.1422H74.2993V39.7156H50.3725V27.1422Z" fill="white"/>
<path d="M115.854 20.8578L110.185 30.2867H100.11L94.4457 20.8578H86.8891L94.4457 33.4311L86.8891 46H94.4457L100.11 36.5711H110.185L115.854 46H123.41L115.854 33.4311L123.41 20.8578H115.854Z" fill="white"/>
</g>
<defs>
<clipPath id="clip0_615_425">
<rect width="204" height="44" fill="white" transform="translate(0 2)"/>
</clipPath>
</defs>
</svg>
