<svg width="240" height="48" viewBox="0 0 240 48" fill="none" xmlns="http://www.w3.org/2000/svg">
<path d="M114 38H126V34.0008H118.002V22.0004H126V18.0012H118.002V10H114V18.0012H110.001V22.0004H114V38Z" fill="white"/>
<path d="M106.001 38V18.0012H101.999V34.0008H89.9994V18.0012H86.0003V38H106.001Z" fill="white"/>
<path d="M30.0009 38V18.0012H13.9991V22.0004H25.999V25.9996H10V38H30.0009ZM13.9991 30.0016H25.999V34.0008H13.9991V30.0016Z" fill="white"/>
<path d="M54.0013 38V22.0004H38.0023V10H34.0032V38H54.0042H54.0013ZM37.9995 25.9996H49.9995V34.0008H37.9995V25.9996Z" fill="white"/>
<path d="M82.0008 38V22.0004H58.0008V38H82.0008ZM61.9998 25.9996H77.9989V34.0008H61.9998V25.9996Z" fill="white"/>
</svg>
