<svg width="240" height="48" viewBox="0 0 240 48" fill="none" xmlns="http://www.w3.org/2000/svg">
<g clip-path="url(#clip0_615_431)">
<path d="M109.999 18.0012V10H106V38H109.999V22.0004H118V38H121.999V18.0012H109.999Z" fill="white"/>
<path d="M145.999 38V34.0008H130V30.0016H142V18.0012H126.001V38.0028H146.002L145.999 38ZM130 22.0004H138.001V25.9996H130V22.0004Z" fill="white"/>
<path d="M30.0009 38V18.0012H13.9991V22.0004H25.9991V25.9996H10V38H30.0009ZM13.9991 30.0016H25.9991V34.0008H13.9991V30.0016Z" fill="white"/>
<path d="M154 22.0004H166V18.0012H149.998V38H154V22.0004Z" fill="white"/>
<path d="M37.9991 22.0004H49.9991V38H54.0009V18.0012H34V38H37.9991V22.0004Z" fill="white"/>
<path d="M82 38V22.0004H58V38H82ZM61.9991 25.9996H77.9981V34.0008H61.9991V25.9996Z" fill="white"/>
<path d="M89.9981 38H101.998V34.0008H94V22.0004H101.998V18.0012H94V10H89.9981V18.0012H85.9991V22.0004H89.9981V38Z" fill="white"/>
</g>
<defs>
<clipPath id="clip0_615_431">
<rect width="156" height="28" fill="white" transform="translate(10 10)"/>
</clipPath>
</defs>
</svg>
