<svg width="240" height="48" viewBox="0 0 240 48" fill="none" xmlns="http://www.w3.org/2000/svg">
<path d="M30.0007 34.0008H13.999V22.0004H30.0007V18.0012H10V38H30.0007V34.0008Z" fill="white"/>
<path d="M54.001 18.0012H38.0021V22.0004H50.0019V25.9996H34.0031V38H54.0038V18.0012H54.001ZM49.9991 34.0008H37.9993V30.0016H49.9991V34.0008Z" fill="white"/>
<path d="M61.9995 38H66.0014V22.0004H73.9994V18.0012H66.0014V13.9992H73.9994V10H61.9995V18.0012H58.0005V22.0004H61.9995V38Z" fill="white"/>
<path d="M97.9995 34.0008H82.0007V30.0016H94.0005V18.0012H78.0017V38.0028H98.0024V34.0036L97.9995 34.0008ZM82.0007 22.0004H90.0015V25.9996H82.0007V22.0004Z" fill="white"/>
</svg>
