<svg width="240" height="48" viewBox="0 0 240 48" fill="none" xmlns="http://www.w3.org/2000/svg">
<path d="M10 38.0009V42H30.0011V30H13.9991V26.0009H29.9983V14.0009H10V34.0019H25.9992V38.0009H10ZM13.9991 18H25.9992V21.9991H13.9991V18Z" fill="white"/>
<path d="M54.0013 33.9991V14.0009H38.0021V18H50.0022V21.9991H34.003V33.9991H54.0041H54.0013ZM37.9993 26.0009H49.9994V30H37.9993V26.0009Z" fill="white"/>
<path d="M61.9995 6H58.0004V33.9991H61.9995V6Z" fill="white"/>
<path d="M70.0005 6H66.0014V33.9991H70.0005V6Z" fill="white"/>
<path d="M94.0006 33.9991V30H78.0015V26.0009H90.0015V14.0009H74.0024V34.0019H94.0035L94.0006 33.9991ZM77.9986 18H85.9996V21.9991H77.9986V18Z" fill="white"/>
<path d="M101.999 18H113.999V14.0009H97.9997V33.9991H101.999V18Z" fill="white"/>
<path d="M130.001 38.0009H113.999V42H134V14.0009H130.001V26.0009H122V14.0009H118.001V30H130.001V38.0009Z" fill="white"/>
</svg>
